<svg style="position: absolute; width: 0; height: 0; overflow: hidden;" version="1.1" xmlns="http://www.w3.org/2000/svg" xmlns:xlink="http://www.w3.org/1999/xlink">
<defs>
<symbol id="icon-facebook" viewBox="0 0 32 32">
<path fill="#3b5998" style="fill: var(--color1, #3b5998)" d="M32 16c0 8.837-7.163 16-16 16s-16-7.163-16-16c0-8.837 7.163-16 16-16s16 7.163 16 16z"></path>
<path d="M20.022 16.626h-2.855v10.459h-4.326v-10.459h-2.057v-3.676h2.057v-2.379c0-1.701 0.808-4.365 4.364-4.365l3.204 0.013v3.568h-2.325c-0.381 0-0.918 0.191-0.918 1.002v2.163h3.233l-0.378 3.672z"></path>
</symbol>
<symbol id="icon-github-logo" viewBox="0 0 32 32">
<path fill="#000" d="M16.023 15.915c-0.007 0-0.016-0-0.023-0.001s-0.016 0.001-0.024 0.001c-1.986 0-3.735-0.503-4.769 0.447-0.62 0.57-0.881 1.256-0.881 1.995 0 3.087 2.473 3.466 5.65 3.466h0.047c3.176 0 5.65-0.379 5.65-3.466 0-0.739-0.261-1.425-0.881-1.995-1.034-0.949-2.783-0.447-4.769-0.447zM13.323 20.134c-0.604 0-1.094-0.679-1.094-1.516s0.49-1.515 1.094-1.515 1.095 0.678 1.095 1.515-0.491 1.516-1.095 1.516zM18.677 20.134c-0.605 0-1.095-0.679-1.095-1.516s0.49-1.515 1.095-1.515c0.604 0 1.094 0.678 1.094 1.515s-0.49 1.516-1.094 1.516zM16 0c-8.837 0-16 7.163-16 16s7.163 16 16 16c8.836 0 16-7.163 16-16s-7.164-16-16-16zM17.459 22.567c-0.287 0-0.857 0.001-1.459 0.001-0.603-0.001-1.173-0.001-1.46-0.001-1.268 0-6.288-0.097-6.288-6.148 0-1.392 0.477-2.411 1.258-3.259-0.125-0.308-0.131-2.055 0.534-3.728 0 0 1.525 0.167 3.833 1.751 0.484-0.134 1.303-0.2 2.122-0.2s1.637 0.066 2.122 0.2c2.308-1.584 3.833-1.751 3.833-1.751 0.665 1.673 0.659 3.42 0.534 3.728 0.781 0.848 1.259 1.867 1.259 3.259 0 6.051-5.020 6.148-6.288 6.148z"></path>
</symbol>
<symbol id="icon-google-plus" viewBox="0 0 32 32">
<path fill="#dc4e41" style="fill: var(--color3, #dc4e41)" d="M32 16c0 8.837-7.163 16-16 16s-16-7.163-16-16c0-8.837 7.163-16 16-16s16 7.163 16 16z"></path>
<path fill="#dc4e41" style="fill: var(--color3, #dc4e41)" d="M5.571 16.716c-0.057 2.753 1.839 5.38 4.448 6.237 2.457 0.825 5.478 0.208 7.112-1.896 1.194-1.474 1.465-3.44 1.336-5.276-2.104-0.019-4.208-0.013-6.309-0.009-0.003 0.75 0 1.496 0.003 2.246 1.26 0.035 2.52 0.019 3.78 0.044-0.318 1.090-1.042 2.104-2.142 2.498-2.123 0.936-4.832-0.287-5.5-2.514-0.806-2.133 0.514-4.706 2.693-5.326 1.351-0.475 2.743 0.060 3.9 0.762 0.586-0.548 1.134-1.134 1.672-1.726-1.314-1.099-3.002-1.773-4.737-1.625-3.405 0.040-6.385 3.184-6.256 6.586z"></path>
<path fill="#dc4e41" style="fill: var(--color3, #dc4e41)" d="M22.561 13.881c-0.006 0.627-0.013 1.257-0.016 1.884-0.63 0.006-1.257 0.009-1.884 0.013 0 0.627 0 1.25 0 1.877 0.627 0.003 1.257 0.006 1.884 0.013 0.006 0.627 0.006 1.254 0.013 1.884 0.624 0 1.251-0.003 1.877 0 0.003-0.63 0.006-1.257 0.013-1.887 0.627-0.003 1.257-0.006 1.884-0.009 0-0.627 0-1.25 0-1.877-0.627-0.003-1.257-0.006-1.884-0.013-0.003-0.627-0.009-1.257-0.013-1.884-0.627-0-1.25-0-1.874-0z"></path>
<path d="M5.571 16.716c-0.129-3.402 2.85-6.545 6.256-6.586 1.736-0.148 3.424 0.526 4.737 1.625-0.539 0.592-1.087 1.178-1.672 1.726-1.156-0.703-2.548-1.238-3.9-0.762-2.18 0.621-3.5 3.194-2.693 5.326 0.668 2.227 3.377 3.449 5.5 2.514 1.099-0.394 1.824-1.408 2.142-2.498-1.26-0.025-2.52-0.009-3.78-0.044-0.003-0.75-0.006-1.496-0.003-2.246 2.101-0.003 4.205-0.009 6.309 0.009 0.129 1.836-0.142 3.802-1.336 5.276-1.635 2.104-4.655 2.722-7.112 1.896-2.608-0.857-4.504-3.484-4.447-6.236z"></path>
<path d="M22.561 13.881c0.624 0 1.247 0 1.874 0 0.003 0.627 0.009 1.257 0.013 1.884 0.627 0.006 1.257 0.009 1.884 0.013 0 0.627 0 1.25 0 1.877-0.627 0.003-1.257 0.006-1.884 0.009-0.006 0.63-0.009 1.257-0.013 1.887-0.627-0.003-1.254 0-1.877 0-0.006-0.63-0.006-1.257-0.013-1.884-0.627-0.007-1.257-0.009-1.884-0.013 0-0.627 0-1.25 0-1.877 0.627-0.003 1.254-0.006 1.884-0.013 0.003-0.626 0.009-1.256 0.016-1.883z"></path>
</symbol>
<symbol id="icon-twitter" viewBox="0 0 32 32">
<path fill="#55acee" style="fill: var(--color4, #55acee)" d="M32 16c0 8.836-7.163 16-16 16s-16-7.163-16-16c0-8.836 7.163-16 16-16s16 7.163 16 16z"></path>
<path d="M25.801 11.499c-0.686 0.304-1.423 0.51-2.197 0.601 0.79-0.473 1.396-1.222 1.682-2.115-0.739 0.438-1.558 0.756-2.429 0.928-0.698-0.743-1.692-1.207-2.792-1.207-2.112 0-3.824 1.713-3.824 3.824 0 0.3 0.034 0.592 0.1 0.872-3.178-0.159-5.997-1.682-7.883-3.996-0.329 0.565-0.518 1.222-0.518 1.923 0 1.327 0.676 2.498 1.701 3.183-0.627-0.020-1.217-0.192-1.732-0.479-0 0.016-0 0.033-0 0.049 0 1.853 1.319 3.399 3.068 3.75-0.321 0.088-0.659 0.134-1.007 0.134-0.247 0-0.486-0.024-0.72-0.068 0.487 1.519 1.899 2.625 3.573 2.656-1.309 1.026-2.958 1.637-4.75 1.637-0.308 0-0.613-0.018-0.912-0.054 1.692 1.086 3.702 1.718 5.862 1.718 7.034 0 10.881-5.827 10.881-10.882 0-0.166-0.004-0.331-0.011-0.495 0.748-0.539 1.396-1.212 1.909-1.979v0z"></path>
</symbol>
</defs>
</svg>
