<svg style="position: absolute; width: 0; height: 0; overflow: hidden;" version="1.1" xmlns="http://www.w3.org/2000/svg" xmlns:xlink="http://www.w3.org/1999/xlink">
<defs>
<symbol id="icon-linkedin" viewBox="0 0 32 32">
<path fill="#000" d="M16 0c-8.822 0-16 7.178-16 16s7.178 16 16 16 16-7.178 16-16-7.178-16-16-16zM16 30.169c-7.813 0-14.169-6.356-14.169-14.169s6.356-14.169 14.169-14.169 14.169 6.356 14.169 14.169-6.356 14.169-14.169 14.169z"></path>
<path d="M11.424 12.318c-0.506 0-0.915 0.41-0.915 0.915v7.568c0 0.506 0.41 0.915 0.915 0.915s0.915-0.41 0.915-0.915v-7.568c0-0.506-0.41-0.915-0.915-0.915z"></path>
<path d="M11.424 8.046c-0.241 0-0.477 0.098-0.647 0.268-0.171 0.17-0.268 0.406-0.268 0.647s0.098 0.477 0.268 0.648c0.17 0.17 0.406 0.267 0.647 0.267s0.477-0.098 0.647-0.267c0.171-0.171 0.268-0.407 0.268-0.648s-0.098-0.477-0.268-0.647c-0.17-0.171-0.406-0.268-0.647-0.268z"></path>
<path d="M19.331 13.030c-0.958 0-1.845 0.309-2.568 0.831v-0.627c0-0.506-0.41-0.915-0.915-0.915s-0.915 0.41-0.915 0.915v7.568c0 0.506 0.41 0.915 0.915 0.915s0.915-0.41 0.915-0.915v-3.373c0-1.416 1.152-2.568 2.568-2.568s2.568 1.152 2.568 2.568v3.576c0 0.506 0.41 0.915 0.915 0.915s0.915-0.41 0.915-0.915v-3.576c0-2.425-1.973-4.399-4.399-4.399z"></path>
</symbol>

<symbol id="icon-google-plus" viewBox="0 0 32 32">
<path d="M18.256 21.033c0-1.569-0.909-2.343-1.91-3.185l-0.819-0.637c-0.25-0.204-0.591-0.477-0.591-0.977s0.342-0.819 0.637-1.114c0.954-0.751 1.91-1.546 1.91-3.229 0-1.729-1.092-2.639-1.615-3.071v0h1.409l1.455-0.819h-4.685c-1.228 0-2.774 0.182-4.071 1.251-0.977 0.841-1.455 2.001-1.455 3.047 0 1.773 1.364 3.571 3.775 3.571 0.228 0 0.477-0.023 0.729-0.045-0.113 0.273-0.227 0.5-0.227 0.887 0 0.704 0.364 1.137 0.682 1.546-1.023 0.068-2.934 0.182-4.343 1.046-1.343 0.796-1.751 1.956-1.751 2.775 0 1.683 1.593 3.252 4.89 3.252 3.91 0 5.98-2.161 5.98-4.298zM13.366 15.233c-1.956 0-2.844-2.525-2.844-4.048 0-0.592 0.113-1.204 0.5-1.683 0.364-0.455 1.001-0.752 1.593-0.752 1.888 0 2.865 2.548 2.865 4.185 0 0.41-0.045 1.137-0.569 1.661-0.364 0.364-0.977 0.636-1.546 0.637zM13.389 24.375c-2.433 0-4.003-1.159-4.003-2.774s1.456-2.16 1.956-2.342c0.956-0.319 2.183-0.365 2.388-0.365 0.227 0 0.34 0 0.522 0.023 1.729 1.228 2.479 1.841 2.479 3.002 0 1.409-1.159 2.455-3.343 2.455z"></path>
<path d="M18.461 16.615h2.463v2.461h1.231v-2.461h2.461v-1.231h-2.461v-2.461h-1.231v2.461h-2.463z"></path>
<path fill="#000" d="M32 16c0-8.836-7.164-16-16-16s-16 7.164-16 16c0 8.836 7.164 16 16 16s16-7.164 16-16zM1.455 16c0-8.033 6.512-14.545 14.545-14.545s14.545 6.512 14.545 14.545-6.512 14.545-14.545 14.545-14.545-6.512-14.545-14.545z"></path>
</symbol>

<symbol id="icon-facebook" viewBox="0 0 32 32">
<path fill="#000" d="M32 16c0-8.836-7.164-16-16-16s-16 7.164-16 16c0 8.836 7.164 16 16 16s16-7.164 16-16zM1.455 16c0-8.033 6.512-14.545 14.545-14.545s14.545 6.512 14.545 14.545-6.512 14.545-14.545 14.545-14.545-6.512-14.545-14.545z"></path>
<path d="M16.614 25.235v-9.235h3.047l0.481-3.060h-3.529v-1.535c0-0.799 0.262-1.561 1.408-1.561h2.291v-3.055h-3.252c-2.735 0-3.481 1.801-3.481 4.297v1.852h-1.876v3.062h1.876v9.235h3.034z"></path>
</symbol>

<symbol id="icon-twitter" viewBox="0 0 32 32">
<path d="M22.861 12.819c0-0.161-0.003-0.321-0.010-0.48 0.691-0.515 1.29-1.159 1.764-1.897-0.634 0.285-1.315 0.476-2.031 0.556 0.73-0.449 1.29-1.168 1.555-2.031-0.684 0.415-1.44 0.711-2.244 0.865-0.644-0.733-1.564-1.2-2.58-1.217-1.952-0.032-3.535 1.617-3.535 3.684 0 0.294 0.031 0.579 0.092 0.854-2.94-0.189-5.545-1.719-7.287-4.026-0.304 0.553-0.479 1.199-0.479 1.891 0 1.309 0.624 2.473 1.572 3.159-0.58-0.026-1.124-0.202-1.601-0.49 0 0.016 0 0.032 0 0.048 0 1.83 1.219 3.363 2.836 3.721-0.297 0.084-0.609 0.128-0.931 0.127-0.228-0.001-0.449-0.026-0.665-0.073 0.449 1.5 1.756 2.595 3.302 2.631-1.21 1.004-2.735 1.603-4.39 1.599-0.285 0-0.567-0.019-0.844-0.054 1.565 1.073 3.423 1.699 5.42 1.699 6.5 0.002 10.055-5.657 10.055-10.566z"></path>
<path fill="#000" d="M32 16c0-8.836-7.164-16-16-16s-16 7.164-16 16c0 8.836 7.164 16 16 16s16-7.164 16-16zM1.455 16c0-8.033 6.512-14.545 14.545-14.545s14.545 6.512 14.545 14.545-6.512 14.545-14.545 14.545-14.545-6.512-14.545-14.545z"></path>
</symbol>

</defs>
</svg>
